<svg width="33" height="31" viewBox="0 0 33 31" fill="none" xmlns="http://www.w3.org/2000/svg">
<path d="M32.2729 27.1776C31.7834 28.24 30.4701 28.9385 29.4155 29.4803C28.0317 30.1754 26.6268 30.5883 25.0546 30.5883C22.875 30.5883 20.9084 29.7609 18.9155 29.0886C17.4842 28.6105 16.1021 28.0262 14.8116 27.2854C10.8275 25.0072 6.02289 20.5521 3.56162 16.8608C2.76584 15.6646 2.13028 14.3819 1.6162 13.0568C0.890845 11.2111 0 9.38342 0 7.36476C0 5.90911 0.445422 4.60522 1.19542 3.32418C1.78169 2.34667 2.53169 1.12927 3.67958 0.672342C4.45423 0.347594 6.09507 0 6.93838 0C7.10211 0 7.26584 -6.0793e-08 7.42958 0.0652759C7.92253 0.218674 8.43838 1.28267 8.67253 1.71676C9.42253 2.95537 10.1496 4.2152 10.9225 5.43259C11.2975 5.9956 12.0018 6.69079 12.0018 7.36639C12.0018 8.69149 7.7588 10.6253 7.7588 11.797C7.7588 12.3845 8.34507 13.1449 8.6743 13.6655C11.0423 17.618 13.993 20.3563 18.2623 22.5512C18.8222 22.8564 19.6426 23.3982 20.2764 23.3982C21.5423 23.3982 23.6285 19.4686 25.0581 19.4686C25.7852 19.4686 26.5334 20.1181 27.1461 20.4673C28.4577 21.1821 29.8187 21.8593 31.1532 22.5512C31.6215 22.7699 32.7694 23.248 32.9331 23.7017C33 23.8551 33 24.0069 33 24.1603C33 24.9403 32.625 26.4612 32.2729 27.1776Z" fill="white"/>
</svg>
